<?xml version="1.0" standalone="no"?>
<!DOCTYPE svg PUBLIC "-//W3C//DTD SVG 20010904//EN"
 "http://www.w3.org/TR/2001/REC-SVG-20010904/DTD/svg10.dtd">
<svg version="1.0" xmlns="http://www.w3.org/2000/svg"
 width="1080.000000pt" height="1080.000000pt" viewBox="0 0 1080.000000 1080.000000"
 preserveAspectRatio="xMidYMid meet">
<metadata>
Created by potrace 1.16, written by Peter Selinger 2001-2019
</metadata>
<g transform="translate(0.000000,1080.000000) scale(0.100000,-0.100000)"
fill="#000000" stroke="none">
<path d="M5205 7320 c-262 -28 -579 -133 -824 -274 -406 -232 -679 -560 -816
-981 -81 -247 -97 -431 -43 -512 129 -196 664 -112 1723 269 138 49 329 117
425 149 906 308 1793 511 2054 469 129 -21 158 -55 112 -134 -43 -73 -150
-159 -373 -297 -131 -82 -163 -122 -163 -204 0 -105 72 -185 173 -192 46 -4
63 1 152 45 152 75 444 235 600 330 469 285 721 523 702 665 -26 196 -517 207
-1385 31 -97 -20 -266 -58 -375 -85 -109 -27 -201 -49 -205 -49 -4 0 -45 45
-90 99 -163 195 -363 351 -603 472 -186 93 -349 146 -564 184 -105 19 -385 27
-500 15z"/>
<path d="M6845 5525 c-322 -52 -686 -160 -1410 -418 -1053 -376 -1963 -607
-2345 -595 -145 4 -193 23 -198 78 -7 80 131 199 434 378 144 85 157 98 157
154 0 35 -6 47 -33 71 -52 47 -81 38 -366 -111 -137 -71 -289 -154 -339 -182
-49 -29 -116 -68 -147 -86 -95 -54 -345 -223 -424 -285 -175 -139 -271 -250
-295 -340 -23 -89 32 -149 171 -185 92 -24 396 -24 590 0 280 34 629 100 984
185 92 23 180 41 194 41 20 0 56 -32 161 -141 142 -148 237 -229 381 -322 469
-304 1091 -389 1615 -220 120 39 342 134 445 190 528 292 843 768 909 1375 28
255 -5 360 -127 403 -65 23 -244 28 -357 10z"/>
</g>
</svg>
